<svg xmlns="http://www.w3.org/2000/svg" width="49" height="43" viewBox="0 0 49 43" fill="none"><g clip-path="url(#clip0_2656_12226)"><path fill-rule="evenodd" clip-rule="evenodd" d="M36.0179 52.2123C48.4209 48.8889 55.7815 36.1401 52.4581 23.737C49.1347 11.3339 36.3859 3.97338 23.9828 7.29678C11.5797 10.6202 4.21914 23.369 7.54254 35.7721C10.8659 48.1752 23.6148 55.5357 36.0179 52.2123ZM37.7649 58.7323C53.7689 54.4441 63.2663 37.994 58.9781 21.99C54.6898 5.986 38.2397 -3.51147 22.2357 0.77678C6.23176 5.06503 -3.26572 21.5151 1.02254 37.5191C5.31079 53.5231 21.7609 63.0206 37.7649 58.7323Z" fill="#F2B457"></path><path fill-rule="evenodd" clip-rule="evenodd" d="M25.2709 14.0552C27.0092 13.5894 28.8135 14.6861 29.3008 16.5047L33.1242 30.7741L43.9659 27.8691C45.7043 27.4033 47.5086 28.5 47.9959 30.3186C48.4832 32.1372 47.469 33.9891 45.7306 34.4549L31.7413 38.2033C30.003 38.6691 28.1987 37.5724 27.7114 35.7538L23.0056 18.1915C22.5183 16.3729 23.5325 14.521 25.2709 14.0552Z" fill="#F2B457"></path></g><defs><clipPath id="clip0_2656_12226"><rect width="49" height="43" fill="white"></rect></clipPath></defs></svg>

