<svg xmlns="http://www.w3.org/2000/svg" width="49" height="43" viewBox="0 0 49 43" fill="none"><g clip-path="url(#clip0_2656_12243)"><path fill-rule="evenodd" clip-rule="evenodd" d="M20.3247 10.376C19.8362 8.55275 17.9621 7.47076 16.1389 7.9593C14.3156 8.44783 13.2336 10.3219 13.7222 12.1451L14.0162 13.2425L4.47986 15.7977C2.65663 16.2862 1.57464 18.1603 2.06317 19.9835L5.50347 32.8229L13.8575 64.0004C14.346 65.8237 16.2201 66.9057 18.0433 66.4171L69.3963 52.6571C71.2195 52.1686 72.3015 50.2945 71.813 48.4713L63.459 17.2938L60.0187 4.45441C59.5302 2.63117 57.6561 1.54918 55.8329 2.03771L46.2957 4.5932L46.0016 3.49587C45.5131 1.67263 43.6391 0.590642 41.8158 1.07918C39.9926 1.56771 38.9106 3.44178 39.3991 5.26501L39.6931 6.36234L20.6187 11.4733L20.3247 10.376ZM41.758 14.0684L41.4623 12.9649L22.3879 18.0759L22.6835 19.1794C23.1721 21.0026 22.0901 22.8767 20.2669 23.3652C18.4436 23.8537 16.5696 22.7717 16.081 20.9485L15.7853 19.845L9.55027 21.5157L11.2214 27.7525L55.9719 15.7617L54.3008 9.52481L48.0648 11.1957L48.3605 12.2992C48.849 14.1225 47.7671 15.9965 45.9438 16.4851C44.1206 16.9736 42.2465 15.8916 41.758 14.0684ZM57.7411 22.3642L12.9906 34.355L19.5754 58.93L64.3259 46.9392L57.7411 22.3642ZM32.3863 31.9095C30.563 32.398 29.481 34.2721 29.9696 36.0953C30.4581 37.9186 32.3322 39.0005 34.1554 38.512L34.5222 38.4137L37.0776 47.9507C37.5662 49.774 39.4402 50.8559 41.2635 50.3674C43.0867 49.8789 44.1687 48.0048 43.6802 46.1816L40.2402 33.3433C39.7516 31.5201 37.8776 30.4381 36.0543 30.9266L32.3863 31.9095Z" fill="#F2B457"></path></g><defs><clipPath id="clip0_2656_12243"><rect width="49" height="43" fill="white"></rect></clipPath></defs></svg>

