<svg xmlns="http://www.w3.org/2000/svg" width="49" height="43" viewBox="0 0 49 43" fill="none"><g clip-path="url(#clip0_2656_12264)"><path d="M17.8673 30.3868C16.3756 22.7182 17.6143 15.3771 21.622 8.26217L26.9014 27.9654L17.8673 30.3868ZM33.8 5.6053C42.2556 6.94069 49.6515 12.6877 52.8279 21.0194L45.9374 22.8654C43.5996 15.8745 39.5411 10.1065 33.8 5.6053ZM58.4948 22.1192C54.2781 6.38198 38.1021 -2.95721 22.3649 1.25958C6.62761 5.47636 -2.71157 21.6523 1.50521 37.3895C5.72199 53.1268 21.8979 62.466 37.6352 58.2492C53.3724 54.0324 62.7116 37.8565 58.4948 22.1192ZM38.4367 51.4654L33.0987 31.5435L42.3492 29.0668C43.8597 36.8353 42.5679 44.2661 38.4367 51.4654ZM28.211 32.8531L33.4877 52.5545C26.4627 48.3977 21.7201 42.6613 19.1775 35.2757L28.211 32.8531ZM26.5572 53.9572C17.9542 52.7293 10.3949 46.9396 7.17329 38.4922L14.2795 36.5882C16.6369 43.6361 20.7429 49.4398 26.5572 53.9572ZM45.3671 48.7639C48.0864 41.9982 48.7173 34.9761 47.2472 27.7546L54.1375 25.9081C55.551 34.7089 52.0213 43.3806 45.3671 48.7639ZM5.86303 33.6034C4.42804 24.6754 8.08036 15.8797 14.9188 10.5143C12.1402 17.334 11.486 24.415 12.9693 31.6992L5.86303 33.6034ZM26.4557 6.73654C33.632 10.9064 38.4644 16.6962 41.0394 24.1779L31.7891 26.6558L26.4557 6.73654Z" fill="#F2B457" stroke="#F2B457"></path></g><defs><clipPath id="clip0_2656_12264"><rect width="49" height="43" fill="white"></rect></clipPath></defs></svg>

