<svg width="168" height="40" viewBox="0 0 168 40" fill="none" xmlns="http://www.w3.org/2000/svg"><path d="M60.8014 27.6612C56.5343 27.6612 53.7664 24.5753 53.7664 21.3636V20.9655C53.7664 17.6994 56.5343 14.668 60.8014 14.668C65.0686 14.668 67.8602 17.6994 67.8602 20.9655V21.3636C67.8602 24.5753 65.0923 27.6612 60.8014 27.6612ZM65.5774 20.9996C65.5774 18.6588 63.8814 16.5766 60.8014 16.5766C57.7215 16.5766 56.0526 18.6622 56.0526 20.9996V21.2922C56.0526 23.6329 57.7486 25.7559 60.8014 25.7559C63.8542 25.7559 65.5774 23.6329 65.5774 21.2922V20.9996ZM12.5911 27.1883L11.0002 24.1943H3.92453L2.37439 27.1883H0L6.51262 15.1035H8.39518L15.0163 27.1883H12.5911ZM7.39793 17.4612L4.77592 22.5442H10.1115L7.39793 17.4612ZM25.2907 27.668C20.9659 27.668 18.9578 25.3068 18.9578 22.1699V15.1035H21.2033V22.1971C21.2033 24.429 22.6687 25.7559 25.4535 25.7559C28.3129 25.7559 29.4866 24.429 29.4866 22.1971V15.1035H31.749V22.1529C31.749 25.1571 29.8495 27.6612 25.2907 27.6612V27.668ZM44.3401 16.9917V27.1985H42.0776V16.9917H36.8133V15.1035H49.6045V16.9917H44.3401ZM88.012 27.1985V17.6245L87.415 18.6792L82.3677 27.1848H81.2653L76.2723 18.6792L75.6753 17.6245V27.1883H73.4671V15.1035H76.5979L81.3467 23.3947L81.9098 24.4154L82.4695 23.3947L87.1742 15.1035H90.2676V27.1883L88.012 27.1985ZM107.37 27.1985L105.776 24.2045H98.7069L97.1703 27.1985H94.796L101.309 15.1137H103.188L109.792 27.1883L107.37 27.1985ZM102.177 17.4612L99.5549 22.5442H104.891L102.177 17.4612ZM118.91 16.9917V27.1985H116.651V16.9917H111.386V15.1035H124.174V16.9917H118.91ZM135.5 16.9917V27.1985H133.237V16.9917H127.973V15.1035H140.768V16.9917H135.5ZM146.337 27.1985V16.2466C147.24 16.2466 147.602 15.7567 147.602 15.1035H148.569V27.1883L146.337 27.1985ZM166.272 18.5261C164.975 17.2819 163.253 16.5831 161.459 16.5732C158.24 16.5732 156.428 18.7881 156.428 21.0914V21.3262C156.428 23.6125 158.257 25.7491 161.622 25.7491C163.382 25.7158 165.067 25.0228 166.343 23.8064L167.7 25.2388C166.007 26.821 163.772 27.6885 161.459 27.6612C156.9 27.6612 154.132 24.6842 154.132 21.418V21.02C154.132 17.7538 157.154 14.668 161.567 14.668C164.118 14.668 166.435 15.7397 167.673 17.0802L166.272 18.5261ZM62.2939 18.8663C62.0973 18.7398 61.8586 18.6966 61.6303 18.7464C61.402 18.7961 61.2027 18.9347 61.0762 19.1317L59.0206 22.3434C58.8936 22.5404 58.8495 22.7797 58.8978 23.0092C58.9461 23.2386 59.0829 23.4396 59.2784 23.5683V23.5683C59.3757 23.6307 59.4843 23.6733 59.5981 23.6935C59.7118 23.7138 59.8284 23.7114 59.9412 23.6864C60.0539 23.6615 60.1607 23.6145 60.2554 23.5481C60.35 23.4817 60.4307 23.3972 60.4928 23.2995L62.5483 20.1116C62.6117 20.0147 62.6554 19.9062 62.6769 19.7923C62.6985 19.6784 62.6974 19.5614 62.6738 19.4479C62.6501 19.3345 62.6044 19.2268 62.5392 19.1311C62.474 19.0354 62.3907 18.9535 62.2939 18.8902V18.8663Z" fill="#333333"></path></svg>
