<svg width="55" height="40" viewBox="0 0 55 40" fill="none" xmlns="http://www.w3.org/2000/svg"><path d="M18.7006 27.8294C15.3528 27.8294 12.005 27.8294 8.65721 27.8294C8.3374 27.8294 8.22591 27.7481 8.19939 27.5002C8.17666 27.2884 8.25136 27.115 8.46724 27.0891C9.20775 27 9.40813 26.5074 9.4178 25.8558C9.42039 25.6804 9.4376 25.5052 9.43775 25.3298C9.43924 23.3813 9.44665 21.4327 9.43244 19.4842C9.42935 19.0612 9.38995 18.6284 9.29285 18.2179C9.02768 17.0971 8.2069 16.7037 7.16597 16.8884C6.08576 17.0802 5.39491 17.9091 5.25066 19.1218C5.21726 19.4032 5.20029 19.6881 5.19964 19.9715C5.1953 21.9117 5.19726 23.8519 5.19765 25.7921C5.19765 25.9007 5.20452 26.0093 5.20462 26.118C5.20517 26.5349 5.4238 26.7864 5.80273 26.912C5.97585 26.9694 6.15195 27.018 6.32776 27.0666C6.49629 27.1132 6.6135 27.2024 6.60782 27.3952C6.60204 27.5905 6.51493 27.7365 6.32232 27.7884C6.21161 27.8181 6.09252 27.8271 5.97723 27.8272C4.14131 27.8294 2.30548 27.8289 0.469559 27.8275C0.111467 27.8273 0.0112893 27.7394 0.00291362 27.4589C-0.0024659 27.2783 0.0852549 27.1786 0.240329 27.1213C0.34904 27.0811 0.460051 27.0473 0.568669 27.007C0.99804 26.8475 1.21857 26.5366 1.23347 26.076C1.2421 25.8087 1.2628 25.5415 1.26295 25.2743C1.26484 21.5695 1.26597 17.8647 1.26199 14.1599C1.26138 13.5669 1.2474 12.9732 1.2171 12.381C1.19157 11.8839 1.09409 11.7821 0.624745 11.6487C0.537112 11.6237 0.448386 11.602 0.35926 11.5832C0.12683 11.5341 0.00306387 11.4112 3.62511e-05 11.1526C-0.00287089 10.8936 0.169536 10.8501 0.350628 10.8142C1.76819 10.5334 3.11452 10.0557 4.37811 9.34772C4.53737 9.2585 4.68983 9.157 4.84789 9.06542C5.071 8.93611 5.18858 8.99767 5.21191 9.25751C5.22079 9.35716 5.21651 9.45807 5.21626 9.55838C5.21008 11.8747 5.20193 14.1909 5.20143 16.5072C5.20138 16.6458 5.26189 16.7845 5.29414 16.923C5.41192 16.8551 5.5446 16.8045 5.64524 16.7167C6.9184 15.6054 8.36407 14.968 10.0795 15.0747C10.7961 15.1193 11.4598 15.3329 12.0652 15.7328C13.0254 16.3669 13.3739 17.3093 13.4206 18.4081C13.4338 18.717 13.4396 19.0265 13.4398 19.3357C13.4415 21.5101 13.4403 23.6844 13.441 25.8588C13.4411 26.5128 13.7309 26.8964 14.3602 27.0443C14.8367 27.1563 15.3169 27.1639 15.7805 26.9766C16.1666 26.8206 16.3936 26.532 16.4369 26.1091C16.4471 26.0096 16.4524 25.909 16.4525 25.809C16.4532 23.367 16.4531 20.925 16.4527 18.483C16.4527 18.0306 16.3717 17.9207 15.9354 17.7879C15.7771 17.7398 15.6171 17.6959 15.4559 17.6585C15.2291 17.6058 15.1617 17.4582 15.1544 17.2367C15.1467 17.0044 15.2904 16.9577 15.461 16.9212C16.5741 16.6831 17.6638 16.3686 18.6916 15.869C19.1092 15.666 19.5152 15.4371 19.9174 15.204C20.2376 15.0186 20.3929 15.0786 20.3956 15.4456C20.4034 16.4991 20.3947 17.5529 20.3919 18.6065C20.3916 18.6984 20.3844 18.7903 20.3843 18.8821C20.3837 21.0645 20.3829 23.2469 20.3846 25.4293C20.3848 25.6212 20.3839 25.8159 20.4147 26.0042C20.5027 26.5423 20.8505 26.8607 21.3474 27.0045C21.8742 27.157 22.4133 27.1664 22.946 27.0168C23.5492 26.8476 23.8915 26.3991 23.8923 25.7657C23.8955 23.4157 23.894 21.0657 23.8922 18.7157C23.8921 18.5908 23.8742 18.4659 23.8627 18.3411C23.8377 18.0695 23.692 17.8873 23.4349 17.8169C23.1877 17.7492 22.9342 17.7022 22.6818 17.6561C22.3286 17.5916 22.2393 17.5182 22.235 17.2637C22.2306 17.0042 22.3121 16.9326 22.6681 16.8615C24.1137 16.5724 25.5087 16.135 26.8081 15.4203C26.9753 15.3283 27.1344 15.2208 27.3037 15.1331C27.5676 14.9964 27.6766 15.0587 27.6826 15.3532C27.6903 15.721 27.6772 16.0894 27.6897 16.4569C27.6942 16.589 27.747 16.7195 27.7778 16.8506C27.9057 16.7881 28.0547 16.7497 28.1578 16.6588C28.7037 16.1777 29.2693 15.7223 29.9425 15.4396C31.2471 14.8915 32.5531 14.8442 33.8308 15.5302C34.358 15.8133 34.7033 16.2918 35.0568 16.7581C35.2854 17.0596 35.3476 17.0703 35.6262 16.8013C36.3927 16.0615 37.2496 15.4732 38.2891 15.2059C39.7207 14.8378 41.0953 14.9456 42.332 15.8301C42.9757 16.2906 43.312 16.9632 43.3748 17.7478C43.4414 18.5798 43.4851 19.4155 43.4926 20.25C43.5095 22.1399 43.4984 24.03 43.4977 25.92C43.4975 26.538 43.6719 26.7734 44.2654 26.9477C44.345 26.971 44.4263 26.9889 44.5045 27.0161C44.748 27.1007 44.8344 27.2539 44.8046 27.5195C44.7764 27.7723 44.6001 27.8181 44.3958 27.8274C44.3046 27.8315 44.2131 27.8281 44.1217 27.8281C42.3605 27.828 40.5995 27.8284 38.8383 27.8275C38.4672 27.8274 38.3019 27.7135 38.2708 27.4416C38.2508 27.2655 38.3032 27.1278 38.4807 27.062C38.5427 27.039 38.6052 27.0172 38.6684 26.9981C39.307 26.8049 39.5034 26.5811 39.5095 25.9079C39.523 24.3868 39.5169 22.8653 39.5096 21.3441C39.5053 20.4582 39.4903 19.5722 39.4674 18.6866C39.4324 17.3326 38.2377 16.762 37.2248 16.9781C36.4383 17.146 35.8372 17.5663 35.6316 18.4094C35.614 18.4815 35.6043 18.5576 35.6045 18.6318C35.6093 21.0312 35.6153 23.4305 35.623 25.83C35.6234 25.9466 35.6415 26.0631 35.6475 26.1799C35.6645 26.5101 35.8334 26.7269 36.1385 26.8338C36.3338 26.9022 36.5332 26.9591 36.7321 27.0165C36.9391 27.0763 37.0282 27.2086 37.0122 27.4258C36.9963 27.641 36.8886 27.7649 36.6799 27.7972C36.5735 27.8137 36.4653 27.8266 36.358 27.8267C34.5553 27.8285 32.7527 27.8289 30.95 27.8273C30.573 27.827 30.4347 27.7058 30.4332 27.4082C30.4324 27.2311 30.5096 27.1185 30.6727 27.0742C31.6383 26.8118 31.6869 26.4354 31.686 25.5853C31.684 23.8044 31.6713 22.0235 31.6539 20.2427C31.6486 19.7082 31.62 19.1736 31.5893 18.6398C31.5163 17.3737 30.5362 16.6721 29.3087 16.9887C28.5286 17.1899 27.7519 17.8105 27.7754 18.9606C27.8146 20.8832 27.7905 22.8071 27.7975 24.7304C27.7991 25.1398 27.822 25.549 27.8319 25.9584C27.8436 26.4361 28.0827 26.7401 28.5274 26.8859C28.7164 26.9479 28.9074 27.0045 29.0993 27.0565C29.2961 27.1098 29.3598 27.2511 29.3497 27.4346C29.3395 27.6173 29.2602 27.7603 29.065 27.7944C28.9431 27.8158 28.818 27.8269 28.6943 27.827C25.3631 27.8287 22.0318 27.8283 18.7006 27.8283V27.8294ZM51.3357 15.0872C52.2369 15.1155 53.2323 15.2245 54.0986 15.8237C54.6386 16.1973 54.9858 16.6986 54.9996 17.3834C55.0132 18.0583 54.6638 18.4743 53.9972 18.5549C53.7525 18.5845 53.4984 18.5763 53.2529 18.5476C52.8082 18.4957 52.4759 18.2538 52.2934 17.8421C52.1554 17.5311 52.0395 17.2082 51.94 16.8824C51.7254 16.1805 51.4465 15.9618 50.7135 15.9731C50.2159 15.9807 49.7543 16.1042 49.4131 16.4964C48.9516 17.0269 48.9531 17.8919 49.4978 18.3817C50.0757 18.9014 50.7288 19.3378 51.3593 19.7965C52.0233 20.2796 52.7351 20.7032 53.3609 21.2311C54.1114 21.864 54.5647 22.6964 54.592 23.7125C54.6241 24.9058 54.0944 25.8409 53.2126 26.5839C51.9699 27.6312 50.4971 28.0142 48.9077 27.9996C47.9136 27.9904 46.9351 27.8671 46.0371 27.3918C45.4854 27.0999 45.0426 26.6977 44.8412 26.0786C44.4847 24.9826 45.1151 24.1343 46.2575 24.1712C47.1276 24.1994 47.4675 24.4406 47.7719 25.2763C47.8859 25.589 47.9787 25.9108 48.0604 26.2338C48.1854 26.7282 48.4884 27.036 48.9891 27.0729C49.3642 27.1005 49.7607 27.1075 50.1209 27.0165C51.316 26.7145 51.7174 25.3497 50.8541 24.4635C50.3881 23.9853 49.8357 23.5831 49.2859 23.1993C48.496 22.648 47.6465 22.1803 46.9685 21.4777C46.0547 20.5308 45.679 19.423 46.0504 18.1276C46.3386 17.1224 47.0419 16.445 47.9132 15.9359C48.9338 15.3396 50.0463 15.0801 51.3357 15.0872ZM16.1288 12.1659C16.1268 10.9788 17.0826 10.0083 18.2572 10.0048C19.432 10.0014 20.4195 10.9799 20.414 12.1419C20.4082 13.355 19.4682 14.3199 18.2805 14.3319C17.1007 14.3438 16.1309 13.3675 16.1288 12.1659Z" fill="#333333"></path></svg>
