<svg width="113" height="40" viewBox="0 0 113 40" fill="none" xmlns="http://www.w3.org/2000/svg"><path d="M14.7208 22.8102C11.0931 22.8461 7.59276 24.1558 4.3498 26.2788C3.31418 26.9576 2.33479 27.7111 1.38794 28.5125C1.12163 28.7367 0.843498 29.0298 0.452922 28.8354C0.0712236 28.647 0.0179633 28.2643 0.00316874 27.8786C-0.0293792 27.1101 0.192539 26.4014 0.497306 25.7167C1.44416 23.5996 2.94136 21.9042 4.59835 20.3434C5.30553 19.6766 6.07188 19.0726 6.80569 18.4357C6.94772 18.3131 7.21698 18.2114 7.1726 18.023C7.11934 17.7928 6.8412 17.9124 6.66366 17.8974C5.10728 17.7629 4.25512 17.0751 3.97698 15.6518C3.76098 14.5514 4.23144 13.6574 4.95934 12.9069C5.97424 11.8603 7.21698 11.2384 8.67276 11.047C9.22016 10.9752 9.51013 11.1965 9.6492 11.6959C9.82969 12.3357 9.88591 12.9936 9.84745 13.6484C9.8149 14.1747 10.0102 14.1956 10.4156 14.0162C11.6435 13.469 12.9099 13.0534 14.2503 12.877C16.5671 12.572 18.7745 12.9876 20.9049 13.8906C23.4614 14.9701 25.6273 16.6326 27.6305 18.5313C27.8879 18.7765 28.1512 18.9739 28.5181 18.8662C28.8643 18.7676 29.0803 18.6181 28.8259 18.1935C28.2873 17.2934 27.7015 16.4293 27.0801 15.586C26.0593 14.1956 25.0917 12.7813 24.6213 11.0859C24.3786 10.2068 24.2307 9.31868 24.3342 8.4037C24.3431 8.31399 24.3431 8.22429 24.3609 8.13757C24.6035 6.82789 25.2722 6.57971 26.296 7.41396C27.231 8.17346 27.808 9.17815 28.2489 10.2815C29.1336 12.4882 29.8112 14.7697 30.6308 17.0034C30.7876 17.431 30.9533 17.4758 31.3498 17.3293C31.7345 17.1888 31.6457 16.9705 31.5776 16.7044C31.1161 14.8415 30.4503 13.0444 29.9 11.2085C29.4946 9.8599 29.1839 8.49639 29.1957 7.07906C29.2046 6.00859 29.5774 5.76638 30.5509 6.21192C31.7552 6.7651 32.4121 7.80567 32.8884 8.98379C33.5039 10.5028 33.643 12.1175 33.7288 13.7351C33.7879 14.8744 33.7081 16.0136 33.6075 17.1439C33.5749 17.5237 33.6814 17.7389 33.9507 17.9542C34.9449 18.7556 35.9006 19.5958 36.7291 20.5706C37.3534 21.3032 37.8979 22.0836 38.102 23.0584C38.2825 23.9196 38.0281 24.6402 37.4333 25.2472C36.5723 26.1263 35.4568 26.518 34.3235 26.8679C34.0868 26.9396 33.853 27.0264 33.6104 27.0592C33.1074 27.131 33.1163 27.3941 33.3737 27.7081C34.0158 28.4885 34.6904 29.2391 35.3266 30.0225C36.2705 31.1827 37.1433 32.3907 37.3949 33.9246C37.5043 34.5974 37.6109 35.33 36.951 35.7755C36.2912 36.2181 35.6077 35.934 35.0218 35.5453C34.004 34.8695 33.2849 33.8858 32.5718 32.914C30.1633 29.6397 27.2576 26.9426 23.6626 25.0409C20.9552 23.6116 18.0821 22.8132 14.7208 22.8102Z" fill="#333333"></path><path d="M46.3513 21.4586C47.0614 20.1729 47.7331 18.905 48.6859 17.8166C49.325 17.087 50.0618 16.495 51.0353 16.2737C52.1626 16.0196 53.0296 16.489 53.4053 17.5894C53.6361 18.2652 53.7249 18.9708 53.7515 19.6825C53.787 20.6961 53.8018 21.7098 53.8699 22.7205C53.9024 23.2049 53.9202 23.788 54.4794 23.9793C55.0179 24.1647 55.4115 23.776 55.7665 23.4232C55.9322 23.2587 56.163 23.1301 56.0388 22.8012C55.0298 20.1639 56.7104 17.3262 59.4681 16.4651C62.3264 15.574 65.5102 17.0691 66.4008 19.7513C67.2057 22.1733 65.8742 24.8345 63.3295 25.7973C61.1932 26.6047 59.2048 26.2907 57.4472 24.8016C57.1099 24.5146 56.9708 24.5923 56.7104 24.8704C55.8494 25.7914 54.8227 26.3715 53.5207 26.1861C52.0058 25.9708 51.1891 25.0229 51.0116 23.2886C50.9139 22.3348 50.8814 21.3749 50.8015 20.4211C50.766 20.0024 50.7808 19.5001 50.3014 19.3326C49.8191 19.1682 49.4582 19.5091 49.1593 19.841C48.0616 21.058 47.4224 22.5441 46.7804 24.0272C46.5555 24.5475 46.3572 25.0797 46.1531 25.609C45.9696 26.0814 45.5702 26.2818 44.9014 26.219C44.4103 26.1741 44.0404 26.0366 43.9635 25.4296C43.8126 24.2484 43.6972 23.0644 43.635 21.8773C43.4397 18.1665 43.3954 14.4497 43.5285 10.736C43.567 9.70734 43.6498 8.67873 43.7652 7.6561C43.8599 6.8069 44.9281 6.19691 45.7477 6.46901C46.2537 6.63646 46.5762 6.89062 46.6087 7.51257C46.7537 10.2844 46.7064 13.0563 46.6117 15.8282C46.5377 17.706 46.4342 19.5808 46.3513 21.4586ZM63.4064 21.1955C63.4242 20.5317 63.2437 19.9277 62.8561 19.3924C62.1193 18.3758 60.8973 18.1844 59.9356 18.926C58.4325 20.0832 58.6337 22.8192 60.3025 23.7132C60.9032 24.0361 61.5334 24.0272 62.1164 23.6654C63.0218 23.1062 63.3916 22.2391 63.4064 21.1955Z" fill="#333333"></path><path d="M93.7357 22.1973C93.8895 23.214 94.7683 23.9256 95.9016 24.0093C97.958 24.1618 99.5263 23.3186 100.651 21.6083C101.148 20.8517 101.547 20.0414 101.893 19.2012C102.038 18.8454 102.018 18.6091 101.719 18.3251C100.914 17.5536 100.719 16.2828 101.198 15.3289C101.669 14.39 102.834 14.3123 103.42 15.1914C103.639 15.5203 103.799 15.8941 103.778 16.2888C103.749 16.8031 104.018 16.9765 104.447 17.0572C105.246 17.2038 106.051 17.2935 106.861 17.2845C107.216 17.2785 107.566 17.3054 107.909 17.3891C108.844 17.6134 109.311 18.3639 109.101 19.3178C108.882 20.3135 108.415 21.2165 108.06 22.1614C107.903 22.5771 107.77 22.9987 107.637 23.4203C107.569 23.6296 107.554 23.8479 107.746 24.0093C107.947 24.1798 108.16 24.0691 108.344 23.9794C108.865 23.7283 109.243 23.3007 109.595 22.8551C110.249 22.0358 110.779 21.1328 111.276 20.2119C111.356 20.0623 111.406 19.8381 111.628 19.877C111.818 19.9128 111.883 20.1072 111.927 20.2836C112.096 20.9355 112.131 21.6053 111.862 22.2212C111.315 23.4651 110.593 24.6014 109.542 25.4895C108.873 26.0546 108.11 26.3716 107.219 26.3596C105.554 26.3327 104.45 24.9542 104.778 23.3007C104.968 22.3528 105.346 21.4737 105.746 20.6036C106.057 19.9218 105.986 19.8082 105.272 19.7304C104.784 19.6766 104.281 19.6288 103.82 19.4793C103.376 19.3357 103.266 19.5032 103.118 19.8799C102.429 21.6382 101.621 23.3186 100.236 24.6672C97.8397 26.9995 94.2772 26.6227 92.3095 25.1127C90.8626 24.0034 90.1199 22.4963 90.4158 20.6424C90.759 18.4925 92.1349 17.1948 94.1322 16.5609C95.3542 16.1722 96.594 16.2021 97.8012 16.7223C99.0084 17.2426 99.7541 18.2712 99.7393 19.4524C99.7245 20.6604 98.9877 21.683 97.7746 22.1644C96.452 22.6787 95.1204 22.607 93.7357 22.1973ZM94.721 20.9923C95.3631 20.9444 96.0673 20.8936 96.7005 20.5318C97.1088 20.2956 97.2952 19.9547 97.2449 19.4703C97.1946 18.9889 96.9461 18.6958 96.5023 18.5404C95.5051 18.1935 94.4044 18.657 93.9162 19.7304C93.3658 20.9444 93.5019 20.9115 94.721 20.9923Z" fill="#333333"></path><path d="M81.3107 17.192C82.3818 16.4893 83.4884 16.1544 84.7075 16.2112C87.2551 16.3308 89.3914 18.1249 89.8501 20.5559C90.1844 22.326 89.2109 24.2966 87.4386 25.3371C85.82 26.288 84.1098 26.4465 82.367 25.7258C81.8728 25.5225 81.8551 25.6959 81.8788 26.0996C82.0208 28.71 82.1539 31.3204 82.0888 33.9368C82.08 34.2388 82.0829 34.5408 82.0652 34.8428C82.0238 35.5575 81.6391 35.9342 80.929 35.9611C79.917 36.003 79.2335 35.396 79.1299 34.4063C78.9169 32.37 78.8725 30.3277 78.7926 28.2854C78.6654 24.9933 78.8607 21.7131 79.0471 18.4329C79.0737 17.9544 79.127 17.476 79.195 17.0006C79.2927 16.3188 79.5116 16.1334 80.1952 16.1065C80.9408 16.0826 81.1923 16.3099 81.3107 17.192ZM81.645 21.3722C81.6361 21.5935 81.6894 21.9792 81.8255 22.347C82.1924 23.3307 83.0623 23.9019 84.2281 23.9258C85.2016 23.9467 85.9739 23.4115 86.3822 22.4337C87.0243 20.8967 86.2905 18.9591 84.9146 18.5614C83.1925 18.0621 81.6509 19.303 81.645 21.3722Z" fill="#333333"></path><path d="M69.7598 17.144C70.3191 16.833 70.8724 16.534 71.4908 16.3726C74.4201 15.6071 77.5684 17.461 78.2164 20.3465C78.6721 22.3648 77.5033 24.5835 75.4321 25.5703C73.8934 26.3058 72.3104 26.3866 70.7274 25.7108C70.3516 25.5523 70.2392 25.5792 70.2717 26.0188C70.4907 28.9461 70.5321 31.8765 70.4641 34.8128C70.4463 35.5484 70.0528 35.9431 69.3219 35.967C68.3987 35.9969 67.6945 35.4497 67.5673 34.5497C67.3187 32.7885 67.2832 31.0094 67.2181 29.2332C67.0968 25.8035 67.1915 22.3738 67.4193 18.9501C67.4637 18.2773 67.5673 17.6075 67.6058 16.9347C67.6324 16.4892 67.8395 16.2679 68.2567 16.1662C69.1059 15.9599 69.5498 16.229 69.7598 17.144ZM75.0149 21.2017C75.0119 19.9308 74.3018 18.8424 73.2809 18.5524C72.3311 18.2833 71.1653 18.663 70.5735 19.4375C69.9255 20.2867 69.8486 21.7369 70.4019 22.7147C70.8813 23.5669 71.9287 24.0543 72.9791 23.9197C74.1449 23.7732 75.0178 22.607 75.0149 21.2017Z" fill="#333333"></path></svg>
