<svg xmlns="http://www.w3.org/2000/svg" width="116" height="40" viewBox="0 0 116 40"><path d="M 14.425781 3.1875 C 16.507812 2.648438 18.863281 3.726562 19.8125 5.664062 C 20.746094 7.527344 20.410156 9.777344 18.972656 11.269531 C 16.019531 14.242188 13.082031 17.210938 10.128906 20.183594 C 9.53125 20.84375 9.347656 21.785156 9.667969 22.632812 C 9.820312 23.140625 10.265625 23.464844 10.601562 23.847656 C 10.722656 24.015625 10.722656 24.371094 10.480469 24.402344 C 7.574219 24.832031 4.527344 23.171875 3.230469 20.539062 C 1.851562 17.90625 2.324219 14.441406 4.390625 12.285156 C 6.992188 9.667969 9.59375 7.050781 12.195312 4.433594 C 12.789062 3.832031 13.570312 3.402344 14.425781 3.1875 M 76.691406 6.097656 C 77.976562 5.695312 79.476562 6.574219 79.75 7.898438 C 80.117188 9.253906 79.09375 10.714844 77.714844 10.898438 C 76.386719 11.144531 75.007812 10.066406 74.945312 8.714844 C 74.808594 7.527344 75.542969 6.417969 76.691406 6.097656 M 68 6.664062 L 72.054688 6.664062 L 72.054688 28.003906 C 70.695312 28.003906 69.347656 28.003906 67.988281 28.003906 C 68 20.875 68 13.761719 68 6.664062 M 37.464844 13.101562 C 40.34375 11.453125 44.398438 12.101562 46.460938 14.777344 C 45.667969 15.578125 44.839844 16.351562 44.074219 17.164062 C 43.433594 16.394531 42.574219 15.71875 41.566406 15.5625 C 40.832031 15.472656 40.003906 15.503906 39.378906 15.933594 C 38.933594 16.210938 38.75 16.890625 39.117188 17.320312 C 39.5625 17.765625 40.203125 17.921875 40.785156 18.105469 C 42.546875 18.628906 44.457031 19.011719 45.878906 20.246094 C 47.410156 21.585938 47.488281 24.046875 46.539062 25.742188 C 45.484375 27.589844 43.28125 28.4375 41.230469 28.449219 C 38.660156 28.511719 35.9375 27.417969 34.5 25.1875 C 35.292969 24.386719 36.089844 23.585938 36.898438 22.785156 C 37.804688 24.21875 39.363281 25.09375 41.046875 25.109375 C 41.78125 25.109375 42.605469 24.972656 43.140625 24.417969 C 43.601562 23.941406 43.523438 23.046875 42.929688 22.722656 C 41.765625 22.046875 40.386719 21.90625 39.132812 21.429688 C 37.878906 20.953125 36.59375 20.367188 35.84375 19.214844 C 35.246094 18.320312 35.171875 17.210938 35.308594 16.179688 C 35.523438 14.855469 36.320312 13.746094 37.464844 13.101562 M 53.191406 14.164062 C 54.707031 12.683594 56.804688 11.992188 58.882812 12.269531 C 60.582031 12.46875 62.144531 13.269531 63.289062 14.53125 C 66.335938 17.890625 66.121094 23.769531 62.664062 26.757812 C 60.046875 29.082031 55.65625 29.035156 53.191406 26.496094 L 53.191406 34.515625 L 49.214844 34.515625 C 49.214844 27.234375 49.214844 19.9375 49.214844 12.65625 L 53.191406 12.65625 Z M 56.421875 15.980469 C 55.640625 16.148438 54.9375 16.566406 54.386719 17.136719 C 52.703125 18.90625 52.78125 22.09375 54.617188 23.738281 C 56.160156 25.1875 58.855469 25.125 60.292969 23.554688 C 61.851562 21.878906 61.882812 19.011719 60.429688 17.242188 C 59.464844 16.089844 57.84375 15.640625 56.421875 15.980469 M 83.363281 15.503906 C 84.523438 13.808594 86.3125 12.65625 88.332031 12.316406 C 90.277344 11.992188 92.371094 12.253906 94.070312 13.285156 C 94.972656 13.824219 95.722656 14.59375 96.394531 15.410156 C 95.570312 16.242188 94.757812 17.058594 93.933594 17.890625 C 93.304688 17.136719 92.539062 16.441406 91.578125 16.148438 C 90.078125 15.671875 88.289062 15.933594 87.140625 17.074219 C 85.410156 18.828125 85.457031 22.046875 87.292969 23.707031 C 88.410156 24.710938 90.046875 24.925781 91.453125 24.539062 C 92.464844 24.277344 93.289062 23.585938 93.933594 22.785156 C 94.757812 23.617188 95.601562 24.417969 96.394531 25.28125 C 95.402344 26.449219 94.191406 27.496094 92.710938 27.972656 C 90.550781 28.683594 88.089844 28.589844 86.054688 27.527344 C 84.1875 26.574219 82.8125 24.769531 82.261719 22.738281 C 81.632812 20.335938 81.953125 17.597656 83.363281 15.503906 M 102.179688 12.792969 C 104.425781 11.914062 107.105469 12.054688 109.171875 13.347656 C 110.929688 14.425781 112.109375 16.363281 112.429688 18.398438 C 112.597656 19.429688 112.503906 20.476562 112.535156 21.507812 C 108.726562 21.507812 104.917969 21.507812 101.109375 21.507812 C 101.335938 22.523438 101.828125 23.492188 102.652344 24.140625 C 103.9375 25.1875 105.789062 25.234375 107.273438 24.632812 C 108.207031 24.25 108.878906 23.492188 109.550781 22.769531 C 110.332031 23.570312 111.144531 24.339844 111.96875 25.109375 C 111.035156 26.3125 109.84375 27.34375 108.40625 27.882812 C 106.921875 28.421875 105.332031 28.558594 103.785156 28.328125 C 101.628906 27.988281 99.730469 26.695312 98.582031 24.816406 C 97.238281 22.554688 97.023438 19.691406 97.910156 17.210938 C 98.644531 15.195312 100.191406 13.578125 102.179688 12.792969 M 103.050781 16.195312 C 102.179688 16.703125 101.582031 17.566406 101.246094 18.503906 C 103.800781 18.519531 106.355469 18.519531 108.910156 18.503906 C 108.773438 17.613281 108.28125 16.828125 107.5625 16.289062 C 106.246094 15.363281 104.398438 15.363281 103.050781 16.195312 M 75.34375 12.65625 L 79.367188 12.65625 L 79.367188 27.988281 C 78.023438 27.988281 76.691406 27.988281 75.34375 27.988281 C 75.34375 22.878906 75.34375 17.765625 75.34375 12.65625 M 17.976562 14.363281 C 21.1875 13.761719 24.601562 15.902344 25.65625 18.984375 C 26.574219 21.476562 26.023438 24.480469 24.171875 26.402344 C 21.21875 29.375 18.265625 32.347656 15.3125 35.316406 C 13.539062 36.964844 10.511719 36.886719 8.8125 35.164062 C 7.238281 33.703125 6.886719 31.097656 8 29.25 C 8.355469 28.605469 8.917969 28.128906 9.425781 27.605469 C 12.390625 24.601562 15.390625 21.613281 18.34375 18.613281 C 19.230469 17.71875 19.230469 16.105469 18.28125 15.257812 C 18.097656 15.027344 17.609375 14.671875 17.976562 14.363281 Z M 17.976562 14.363281" fill="#333333"></path></svg>
