<svg width="101" height="40" viewBox="0 0 101 40" fill="none" xmlns="http://www.w3.org/2000/svg"><path fill-rule="evenodd" clip-rule="evenodd" d="M41.0913 18.8476C44.2684 19.6149 45.564 20.806 45.564 22.9597C45.564 25.5081 43.6034 27.1547 40.5693 27.1547C38.4245 27.1547 36.4373 26.3978 34.8211 24.965C34.7521 24.9045 34.7445 24.7999 34.8043 24.7298L36.232 23.0423C36.2612 23.0074 36.3033 22.9863 36.3491 22.9825C36.3927 22.98 36.44 22.9936 36.4744 23.023C37.8633 24.2176 39.1051 24.7268 40.6271 24.7268C41.9976 24.7268 42.8492 24.1378 42.8492 23.1905C42.8492 22.3353 42.428 21.8573 39.9327 21.2864C37.0008 20.5827 35.3043 19.6709 35.3043 17.0961C35.3043 14.695 37.2711 13.0169 40.0868 13.0169C42.0018 13.0169 43.64 13.5806 45.0949 14.74C45.1654 14.7962 45.1797 14.8973 45.1274 14.9707L43.8541 16.7533C43.8272 16.7909 43.787 16.8156 43.7414 16.8224C43.6958 16.8296 43.6494 16.8186 43.6124 16.7912C42.3898 15.886 41.224 15.4463 40.0481 15.4463C38.8351 15.4463 38.0192 16.0252 38.0192 16.8858C38.0192 17.7965 38.4836 18.23 41.0913 18.8476ZM54.631 21.7341C54.631 19.9447 53.4771 18.6464 51.888 18.6464C50.2913 18.6464 49.0869 19.9733 49.0869 21.7341C49.0869 23.495 50.2913 24.8217 51.888 24.8217C53.5031 24.8217 54.631 23.5527 54.631 21.7341ZM52.4285 16.2933C54.8721 16.2933 57.3459 18.1621 57.3459 21.7341C57.3459 25.3053 54.8721 27.1736 52.4285 27.1736C51.1137 27.1736 50.0348 26.6892 49.1451 25.6976V29.8589C49.1451 29.9526 49.0687 30.0289 48.9744 30.0289H46.6395C46.5451 30.0289 46.4689 29.9526 46.4689 29.8589V16.6754C46.4689 16.5817 46.5451 16.5054 46.6395 16.5054H48.9744C49.0687 16.5054 49.1451 16.5817 49.1451 16.6754V17.8618C50.0346 16.8077 51.1134 16.2933 52.4285 16.2933ZM63.6867 24.8407C65.3767 24.8407 66.6032 23.551 66.6032 21.7729C66.6032 20.0007 65.3328 18.665 63.6481 18.665C61.9692 18.665 60.7509 19.9558 60.7509 21.7341C60.7509 23.505 62.0129 24.8407 63.6867 24.8407ZM63.6867 16.2933C66.8233 16.2933 69.2793 18.6831 69.2793 21.7341C69.2793 24.7952 66.8063 27.1938 63.6481 27.1938C60.5228 27.1938 58.0743 24.8124 58.0743 21.7729C58.0743 18.6999 60.5398 16.2933 63.6867 16.2933ZM75.9997 16.5054C76.094 16.5054 76.1699 16.5817 76.1699 16.6754V18.6684C76.1699 18.7619 76.094 18.8382 75.9997 18.8382H73.4301V23.632C73.4301 24.3891 73.7645 24.7268 74.5136 24.7268C74.9996 24.7268 75.4345 24.6231 75.8843 24.3983C75.9364 24.3727 75.9997 24.3743 76.0505 24.406C76.1009 24.4368 76.1317 24.492 76.1317 24.5505V26.4485C76.1317 26.509 76.0985 26.566 76.0453 26.5956C75.3905 26.9644 74.6955 27.1361 73.858 27.1361C71.7981 27.1361 70.7538 26.0795 70.7538 23.9955V18.8382H69.631C69.5369 18.8382 69.4609 18.7619 69.4609 18.6684V16.6754C69.4609 16.5817 69.5369 16.5054 69.631 16.5054H70.7538V13.8963C70.7538 13.8027 70.8306 13.7265 70.9251 13.7265H73.2597C73.3541 13.7265 73.4301 13.8027 73.4301 13.8963V16.5054H75.9997ZM84.9519 16.5156H88.9408C89.0117 16.5156 89.0754 16.5589 89.1002 16.6249L91.8277 23.6934L94.3178 16.6295C94.3416 16.5614 94.407 16.5156 94.4797 16.5156H96.9105C96.9671 16.5156 97.0188 16.5433 97.0509 16.5892C97.0832 16.6358 97.0891 16.6947 97.0689 16.747L93.018 27.1431C92.1777 29.2889 91.2248 30.0868 89.5006 30.0868C88.579 30.0868 87.833 29.8971 87.0068 29.4527C86.9278 29.4104 86.8958 29.3147 86.9335 29.2332L87.7248 27.5088C87.7438 27.4657 87.7813 27.4329 87.8258 27.4171C87.8709 27.4034 87.9201 27.4071 87.9618 27.4299C88.4047 27.6706 88.838 27.7926 89.2494 27.7926C89.7584 27.7926 90.1311 27.6264 90.5102 26.7908L87.1707 18.8382H84.9905V26.7929C84.9905 26.8866 84.9136 26.9627 84.8193 26.9627H82.4845C82.3904 26.9627 82.3142 26.8866 82.3142 26.7929V18.8382H81.1924C81.0982 18.8382 81.0211 18.7619 81.0211 18.6684V16.6651C81.0211 16.5716 81.0982 16.4954 81.1924 16.4954H82.3142V16.0045C82.3142 13.7238 83.4541 12.5176 85.6109 12.5176C86.4972 12.5176 87.0891 12.6581 87.5517 12.7945C87.624 12.8166 87.6724 12.8828 87.6724 12.9574V14.9115C87.6724 14.966 87.647 15.0174 87.6019 15.0495C87.5581 15.0816 87.5017 15.09 87.4478 15.0731C87.0099 14.9281 86.6189 14.8321 86.1321 14.8321C85.3158 14.8321 84.9519 15.2525 84.9519 16.1952V16.5156ZM79.7621 16.5054C79.8562 16.5054 79.9331 16.5817 79.9331 16.6754V26.7929C79.9331 26.8866 79.8562 26.9627 79.7621 26.9627H77.427C77.3327 26.9627 77.256 26.8866 77.256 26.7929V16.6754C77.256 16.5817 77.3327 16.5054 77.427 16.5054H79.7621ZM78.6063 11.8986C79.531 11.8986 80.2809 12.6425 80.2809 13.5612C80.2809 14.4803 79.531 15.2249 78.6063 15.2249C77.6814 15.2249 76.9307 14.4803 76.9307 13.5612C76.9307 12.6425 77.6814 11.8986 78.6063 11.8986ZM99.158 17.5119H98.7302V18.0537H99.158C99.3716 18.0537 99.4991 17.95 99.4991 17.7825C99.4991 17.6062 99.3716 17.5119 99.158 17.5119ZM99.4354 18.2848L99.9002 18.931H99.5082L99.0898 18.3383H98.7302V18.931H98.4022V17.2181H99.1714C99.5719 17.2181 99.8356 17.4216 99.8356 17.7644C99.8356 18.0453 99.6722 18.2169 99.4354 18.2848ZM99.0711 16.6479C98.2294 16.6479 97.5924 17.3125 97.5924 18.1262C97.5924 18.9394 98.2249 19.5952 99.0625 19.5952C99.904 19.5952 100.542 18.931 100.542 18.1169C100.542 17.3035 99.9086 16.6479 99.0711 16.6479ZM99.0625 19.7584C98.1383 19.7584 97.4192 19.0213 97.4192 18.1262C97.4192 17.231 98.1476 16.4857 99.0711 16.4857C99.995 16.4857 100.714 17.2226 100.714 18.1169C100.714 19.012 99.9864 19.7584 99.0625 19.7584ZM15.1036 5C23.4451 5 30.2069 11.7155 30.2069 19.9998C30.2069 28.2846 23.4451 35 15.1036 35C6.76219 35 0 28.2846 0 19.9998C0 11.7155 6.76219 5 15.1036 5ZM24.0376 18.2978C24.7072 18.6937 25.5749 18.4739 25.9731 17.8072C26.3711 17.1416 26.1509 16.2806 25.4795 15.8848C19.8748 12.5805 11.0061 12.2699 5.67102 13.8782C4.92417 14.1036 4.50322 14.8869 4.72938 15.6284C4.95555 16.3696 5.74484 16.7882 6.49115 16.5632C11.1387 15.1623 19.1691 15.4264 24.0376 18.2978ZM23.8782 22.5509C24.2185 22.0017 24.0442 21.2816 23.4907 20.943C18.8289 18.0977 12.0098 17.2971 6.52414 18.9502C5.90264 19.1383 5.5513 19.7902 5.73905 20.4087C5.92805 21.026 6.58585 21.3747 7.20862 21.1879C12.0105 19.7403 18.1997 20.458 22.2586 22.9359C22.8121 23.2738 23.5367 23.1013 23.8782 22.5509ZM22.03 26.6353C22.3015 26.1946 22.1617 25.6188 21.7179 25.3496C17.7369 22.9336 12.8017 22.3714 7.04838 23.6777C6.54069 23.7925 6.22439 24.2939 6.34054 24.797C6.45615 25.3 6.96089 25.6154 7.46751 25.5C12.7248 24.3073 17.189 24.7936 20.7358 26.9464C21.1792 27.2158 21.7588 27.0772 22.03 26.6353Z" fill="#333333"></path></svg>
