<svg width="141" height="40" viewBox="0 0 141 40" fill="none" xmlns="http://www.w3.org/2000/svg"><path fill-rule="evenodd" clip-rule="evenodd" d="M24.0209 8.8L23.2202 8.4L22.4195 8L16.014 12V22.4C16.014 23.9983 15.7143 25.2973 15.2273 26.3467C13.2238 26.0897 9.60837 24.752 9.60837 19.2V8.8L8.80768 8.4L8.00698 8L0 12.8V22.4C0 28.8 4.80419 32 8.80768 32C10.1566 32 11.5964 31.6367 12.9127 30.9102L12.9113 30.9122L12.9805 30.8724C13.0279 30.8457 13.0751 30.8185 13.1222 30.7908L19.2243 27.28L19.2206 27.2799C21.7072 26.1566 24.0209 23.6415 24.0209 19.2V8.8ZM1.6014 22.4V13.6L8.00698 9.76V19.2C8.00698 24.543 11.3553 27.0981 14.3248 27.7964C12.7063 29.7858 10.2959 30.4 8.80768 30.4C6.40558 30.4 1.6014 28.8 1.6014 22.4ZM17.6154 22.4V12.8L22.4195 9.8V19.2C22.4195 24.6505 18.9351 26.0394 16.912 26.3315C17.3577 25.1926 17.6154 23.8821 17.6154 22.4ZM42.1444 25.3175C44.4504 25.3175 46.1203 23.8287 46.1203 21.7913V14.2688H47.7106V21.8697C47.7106 24.4556 45.4046 26.8064 42.1444 26.8064C38.8842 26.8064 36.5782 24.5339 36.5782 21.8697V14.2688H38.1685V21.7913C38.1685 23.8287 39.8384 25.3175 42.1444 25.3175ZM54.8672 14.2688H59.1611C62.7394 14.2688 65.2045 16.7763 65.2045 20.5376C65.2045 24.3772 62.7394 26.8064 59.1611 26.8064H54.8672V14.2688ZM56.4576 25.2392H59.0021C61.6262 25.1608 63.6141 23.672 63.6141 20.5376C63.6141 17.6383 61.7057 15.836 59.0021 15.836H56.4576V25.2392ZM89.0598 20.5376C89.0598 23.3585 90.9682 25.4743 93.8308 25.4743C95.718 25.4743 96.8588 24.4444 97.2924 24.0529C97.4068 23.9496 97.472 23.8907 97.4886 23.9071L98.3633 24.8474C98.3633 24.8474 96.8525 26.8847 93.8308 26.8847C89.9344 26.8847 87.4694 23.9854 87.4694 20.5376C87.4694 17.1681 89.8549 14.3472 93.6718 14.3472C96.6139 14.3472 98.0452 15.836 98.0452 15.836L97.4091 16.933C97.4091 16.933 96.0573 15.6793 93.8308 15.6793C91.0477 15.6793 89.0598 17.7166 89.0598 20.5376ZM107.349 14.2688H105.758V26.8064H107.349V14.2688ZM118.481 15.836H114.505V14.2688H124.048V15.836H120.072V26.8064H118.481V15.836ZM135.18 19.9891L138.997 14.2688L140.667 14.2688L135.975 21.2428V26.8064H134.385V21.2428L129.614 14.2688H131.284L135.18 19.9891ZM70.5322 26.8064L75.4623 14.2688L77.1321 14.2688L81.9827 26.8064H80.3923L78.643 22.1048L73.4743 23.2018L72.1225 26.8064H70.5322ZM76.3369 15.9144L73.9514 21.713L78.4044 20.851L76.4165 15.9144H76.3369Z" fill="#333333"></path></svg>
